<svg width="40" height="40" viewBox="0 0 40 40" fill="none" xmlns="http://www.w3.org/2000/svg">
<g id="browser 1" clip-path="url(#clip0_56_240)">
<g id="SVGRepo_iconCarrier">
<g id="Group">
<path id="Vector" d="M14.1698 28.8444C15.6805 30.3056 17.7423 31.2028 19.9951 31.2028C20.0836 31.2028 20.1733 31.2016 20.2624 31.1986C22.5298 31.1278 24.5648 30.1591 26.026 28.6473C27.4872 27.1379 28.3844 25.0755 28.3844 22.8227C28.3844 22.7342 28.3832 22.645 28.3795 22.556L27.6764 22.5779L28.3795 22.5554C28.3087 20.2879 27.3407 18.2536 25.8295 16.7924C24.3188 15.3312 22.2571 14.4339 20.0037 14.4346C19.9145 14.4346 19.8255 14.4358 19.7363 14.4382C17.4695 14.509 15.4346 15.4777 13.9734 16.9895C12.5122 18.4989 11.615 20.5613 11.615 22.8146C11.615 22.9032 11.6168 22.9929 11.6198 23.0814C11.6906 25.3489 12.6587 27.3832 14.1698 28.8444ZM25.0128 27.6689C24.3702 28.3336 23.5962 28.8694 22.7319 29.2375C23.0909 28.7204 23.3972 28.1101 23.6505 27.4265H25.2374C25.1642 27.509 25.0897 27.5901 25.0128 27.6689ZM25.9052 26.5306H23.9362C24.2078 25.5418 24.3732 24.4383 24.4067 23.2664H26.9598C26.8854 24.459 26.5094 25.5718 25.9052 26.5306ZM25.9064 19.1062C26.5082 20.0608 26.883 21.1717 26.9598 22.3704H24.4043C24.3702 21.2004 24.209 20.095 23.938 19.1062H25.9064ZM24.8505 17.805C24.9848 17.9343 25.1117 18.0711 25.235 18.2102H23.6487C23.5145 17.8471 23.368 17.501 23.2032 17.1824C23.0591 16.9035 22.9035 16.6422 22.7369 16.4011C23.5241 16.7381 24.2407 17.2154 24.8505 17.805ZM20.448 15.8586C20.642 15.8702 20.8343 15.8896 21.0241 15.9171C21.1028 15.969 21.1816 16.0246 21.2609 16.0886C21.7968 16.5257 22.3016 17.2623 22.6916 18.2102H20.448V15.8586ZM20.448 19.1062H23.0078C23.2952 20.07 23.4747 21.1814 23.5113 22.3704H20.448L20.448 19.1062ZM20.448 23.2664H23.5082C23.4716 24.4566 23.2909 25.5675 23.0034 26.5306H20.448V23.2664ZM20.448 27.4265H22.6891C22.6 27.6426 22.5073 27.8507 22.4077 28.0436C22.0702 28.6979 21.6735 29.2112 21.2609 29.5481C21.1834 29.6115 21.1059 29.6658 21.0284 29.7171C20.8373 29.7452 20.6432 29.7654 20.4479 29.7782V27.4265H20.448ZM14.093 26.5306C13.4918 25.5772 13.1164 24.4657 13.0401 23.2664H15.5956C15.6298 24.4365 15.7909 25.5418 16.062 26.5306H14.093ZM15.1489 27.8318C15.0147 27.7024 14.8877 27.5664 14.7644 27.4265H16.3507C16.4855 27.7904 16.6321 28.1364 16.7956 28.455C16.9409 28.7339 17.0959 28.9951 17.2632 29.2357C16.4745 28.8987 15.7592 28.4214 15.1489 27.8318ZM19.552 29.7789C19.3579 29.7667 19.165 29.7478 18.9759 29.7196C18.8965 29.6683 18.8184 29.6122 18.7391 29.5482C18.2026 29.1124 17.6984 28.375 17.3084 27.4265H19.552V29.7789ZM19.552 26.5306H16.9922C16.7041 25.5675 16.5246 24.4554 16.4886 23.2664H19.552V26.5306H19.552ZM19.552 22.3704H16.4917C16.5284 21.1809 16.7078 20.0706 16.9959 19.1062H19.552V22.3704ZM17.5921 17.5938C17.9297 16.9395 18.3258 16.4261 18.739 16.0886C18.8165 16.0257 18.894 15.9708 18.9721 15.9202C19.1626 15.8915 19.3566 15.8713 19.552 15.8591V18.2102H17.3107C17.3992 17.9954 17.4927 17.7861 17.5921 17.5938ZM14.9866 17.9679C15.6292 17.3039 16.4038 16.7674 17.268 16.3993C16.9091 16.9163 16.6016 17.5267 16.3488 18.2102H14.7625C14.8352 18.1279 14.9096 18.0467 14.9866 17.9679ZM14.0942 19.1062H16.0632C15.7922 20.0962 15.6262 21.1997 15.5927 22.3704H13.0395C13.114 21.1784 13.49 20.0657 14.0942 19.1062Z" fill="#4D4D4D"/>
<path id="Vector_2" d="M36.25 0H3.75C1.67906 0 0 1.67906 0 3.75V36.25C0 38.3209 1.67906 40 3.75 40H36.25C38.3209 40 40 38.3209 40 36.25V3.75C40 1.67906 38.3209 0 36.25 0ZM34.7394 2.73438C35.5591 2.73438 36.2238 3.39906 36.2238 4.21875C36.2238 5.03844 35.5591 5.70312 34.7394 5.70312C33.9197 5.70312 33.255 5.03844 33.255 4.21875C33.255 3.39906 33.9197 2.73438 34.7394 2.73438ZM29.2316 2.73438C30.0513 2.73438 30.7159 3.39906 30.7159 4.21875C30.7159 5.03844 30.0513 5.70312 29.2316 5.70312C28.4119 5.70312 27.7472 5.03844 27.7472 4.21875C27.7472 3.39906 28.4119 2.73438 29.2316 2.73438ZM23.7238 2.73438C24.5434 2.73438 25.2081 3.39906 25.2081 4.21875C25.2081 5.03844 24.5434 5.70312 23.7238 5.70312C22.9041 5.70312 22.2394 5.03844 22.2394 4.21875C22.2394 3.39906 22.9041 2.73438 23.7238 2.73438ZM36.875 36.25C36.875 36.5942 36.5948 36.875 36.25 36.875H3.75C3.40516 36.875 3.125 36.5942 3.125 36.25V8.125H36.875V36.25Z" fill="#4D4D4D"/>
</g>
</g>
</g>
<defs>
<clipPath id="clip0_56_240">
<rect width="40" height="40" fill="white"/>
</clipPath>
</defs>
</svg>
