<svg width="40" height="40" viewBox="0 0 40 40" fill="none" xmlns="http://www.w3.org/2000/svg">
<g id="chat-check 1">
<g id="SVGRepo_iconCarrier">
<path id="Vector" d="M23.3333 31.6667C29.6187 31.6667 32.7615 31.6667 34.714 29.714C36.6667 27.7615 36.6667 24.6187 36.6667 18.3333C36.6667 12.0479 36.6667 8.90525 34.714 6.95262C32.7615 5 29.6187 5 23.3333 5H16.6667C10.3813 5 7.23858 5 5.28595 6.95262C3.33333 8.90525 3.33333 12.0479 3.33333 18.3333C3.33333 24.6187 3.33333 27.7615 5.28595 29.714C6.37458 30.8027 7.83315 31.2843 10 31.4975" stroke="#4D4D4D" stroke-width="3.33333" stroke-linecap="round" stroke-linejoin="round"/>
<path id="Vector_2" d="M15 18.3333L18.75 21.6667L25 15" stroke="#4D4D4D" stroke-width="3.33333" stroke-linecap="round" stroke-linejoin="round"/>
<path id="Vector_3" d="M23.3333 31.6665C21.2725 31.6665 19.0037 32.4985 16.931 33.5748C13.602 35.3033 11.9375 36.1677 11.1173 35.617C10.297 35.0662 10.4523 33.3583 10.7628 29.9427L10.8333 29.1665" stroke="#4D4D4D" stroke-width="3.33333" stroke-linecap="round"/>
</g>
</g>
</svg>
