<svg width="40" height="40" viewBox="0 0 40 40" fill="none" xmlns="http://www.w3.org/2000/svg">
<g id="hiker 1" clip-path="url(#clip0_55_174)">
<g id="SVGRepo_iconCarrier">
<g id="Group">
<g id="Group_2">
<path id="Vector" d="M12.7666 8.51972C14.2484 8.23062 15.2105 6.79164 14.9214 5.30989C14.6323 3.82807 13.2012 2.86524 11.7195 3.15426C10.2384 3.44336 9.26622 4.87517 9.55599 6.35699C9.84508 7.83882 11.2862 8.80881 12.7666 8.51972Z" fill="#238580"/>
<path id="Vector_2" d="M37.711 25.8589C37.2777 25.0459 36.5782 25.0481 36.1492 25.8632L35.6182 26.8725C35.1885 27.6876 34.0943 28.3486 33.1735 28.3486H31.9222C31.0007 28.3486 29.7095 28.8597 29.0378 29.4891L26.616 31.7611C26.3319 32.0274 25.9422 32.2223 25.5246 32.3407C25.5817 32.2187 25.6067 32.0816 25.5767 31.9453L21.728 6.9387L21.7116 6.8916C21.6003 6.57183 21.2441 6.39268 20.9157 6.50756C20.6202 6.61034 20.4732 6.92011 20.511 7.2313L21.698 14.9315L17.8194 14.7245L15.8308 10.4519C15.496 9.73239 14.5831 9.18204 13.7908 9.2213L11.2761 9.44896C11.0506 9.46038 10.8386 9.52749 10.6459 9.62953C10.1006 9.55959 9.47244 9.78941 8.97419 10.0421C8.96344 10.02 8.95135 9.99998 8.93993 9.97856C9.25687 9.53816 9.40317 8.9764 9.29113 8.40254C9.0763 7.30192 8.00636 6.58101 6.90567 6.79651C5.80505 7.01155 5.08489 8.08149 5.29971 9.18211C5.38533 9.62184 5.61165 9.9958 5.91709 10.2792C5.76146 10.5197 5.68226 10.7852 5.74145 11.0472C5.99487 12.1679 6.27463 13.6789 6.13901 14.4491C5.90918 15.7667 4.9677 19.018 6.69502 19.0637C7.68077 19.0901 8.73929 18.8503 9.46736 18.639L8.88708 32.2915C8.88925 32.4264 8.90567 32.5535 8.9306 32.6791C8.96128 32.8376 9.01622 32.9846 9.08123 33.1245L8.2026 33.8461C7.49028 34.43 6.21186 34.647 5.34748 34.3301L3.04772 33.4863C2.18334 33.1694 1.13624 33.5734 0.708685 34.3892L0.171176 35.4193C-0.256382 36.2358 0.144753 36.8968 1.06556 36.8968H37.3426C38.2634 36.8968 39.1571 36.1644 39.3377 35.2615L39.9344 32.2773C40.115 31.3743 39.9101 29.9832 39.4762 29.1702L37.711 25.8589ZM7.57022 10.2028C7.10482 10.2934 6.64949 10.1443 6.32464 9.84592C6.30822 9.8295 6.28822 9.81591 6.2718 9.79949C6.26321 9.79091 6.25679 9.7809 6.2497 9.77307C6.18685 9.70245 6.12908 9.62818 6.07981 9.54608C5.90134 9.24914 5.8564 8.89795 5.95135 8.55675C6.04622 8.21988 6.26754 7.93221 6.57589 7.74731C6.82856 7.59527 7.12482 7.54533 7.40742 7.6081C7.69361 7.67163 7.93276 7.84151 8.07981 8.08776C8.2026 8.29259 8.23395 8.53533 8.16901 8.77083C8.10407 9.00349 7.95202 9.20122 7.74078 9.32752C7.37242 9.54734 6.90067 9.44031 6.68943 9.08769C6.50954 8.78792 6.61657 8.39171 6.92851 8.20473C7.19476 8.04343 7.53738 8.12404 7.69084 8.38104C7.82431 8.60303 7.74511 8.89638 7.51521 9.03417C7.50446 9.04059 7.49379 9.04634 7.48311 9.05201C7.46527 9.06059 7.47595 9.05985 7.50521 9.04701C7.5223 9.03917 7.53947 9.03059 7.55656 9.02058C7.68861 8.94131 7.78355 8.8186 7.82356 8.67581C7.86282 8.53585 7.84424 8.39313 7.77288 8.27251C7.67651 8.11262 7.51946 8.00051 7.33032 7.95915C7.13759 7.91638 6.9356 7.95064 6.76071 8.05552C6.5323 8.19256 6.36816 8.4053 6.29822 8.65438C6.2297 8.89921 6.26179 9.15046 6.38884 9.36245C6.55372 9.63722 6.82207 9.82778 7.14542 9.89921C7.47229 9.97349 7.81423 9.91422 8.11042 9.73649C8.35099 9.59303 8.53723 9.39746 8.67502 9.17905C8.53096 9.6832 8.12057 10.0951 7.57022 10.2028ZM9.19409 10.7139C9.18834 10.6789 9.17409 10.6497 9.167 10.6153C9.42534 10.4805 9.71443 10.3527 9.98927 10.2777C9.87581 10.484 9.80296 10.7125 9.79445 10.9558L9.67315 13.8037L9.19409 10.7139ZM14.2933 32.3636L12.8586 31.8639C12.8265 31.8526 12.79 31.8475 12.7565 31.8375L13.1969 21.3999L18.344 31.3178C18.4646 31.5812 18.6452 31.804 18.8607 31.9824L17.4617 32.417C16.581 32.6904 15.1634 32.6663 14.2933 32.3636ZM22.5739 31.8825C22.2941 31.7811 21.955 31.7133 21.5974 31.6712C21.9215 31.2494 22.0743 30.7004 21.9643 30.1344C21.9365 29.9917 21.8929 29.8618 21.8415 29.7284L15.4053 17.0794L15.4567 15.447L15.977 16.6226C16.3846 17.3728 17.1312 17.3114 17.1312 17.3114L21.715 17.5662C21.8071 17.5655 21.8935 17.5576 21.9806 17.5405C22.0205 17.5327 22.057 17.517 22.0955 17.5062L24.3667 32.2401C24.3717 32.2558 24.3697 32.2744 24.3725 32.2821C24.396 32.35 24.4353 32.4063 24.4774 32.4599C24.2504 32.4457 24.0299 32.4078 23.8314 32.3357L22.5739 31.8825Z" fill="#238580"/>
</g>
</g>
</g>
</g>
<defs>
<clipPath id="clip0_55_174">
<rect width="40" height="40" fill="white"/>
</clipPath>
</defs>
</svg>
