<svg width="41" height="41" viewBox="0 0 41 41" fill="none" xmlns="http://www.w3.org/2000/svg">
<g id="SVGRepo_iconCarrier">
<path id="Vector" d="M0.5 40.5V37.1667C0.5 30.4164 5.97207 24.9444 12.7222 24.9444H19.3889C26.1391 24.9444 31.6111 30.4164 31.6111 37.1667V40.5M7.16667 40.5V33.8333M24.9444 40.5V33.8333M28.2778 7.16667L29.026 6.04429C29.8264 4.84358 31.4713 4.56182 32.6258 5.42767C33.8496 6.34549 33.9767 8.13442 32.8951 9.21609L31.2858 10.8254C30.7827 11.3285 30.5 12.0108 30.5 12.7222M30.5 16.0556V16.5M22.3402 4.7178C24.1522 2.16544 27.1316 0.5 30.5 0.5C36.0229 0.5 40.5 4.97716 40.5 10.5C40.5 16.0228 36.0229 20.5 30.5 20.5C27.7331 20.5 25.2287 19.3762 23.418 17.5602M24.9444 11.6111C24.9444 6.70191 20.9647 2.72222 16.0556 2.72222C11.1464 2.72222 7.16667 6.70191 7.16667 11.6111C7.16667 16.5204 11.1464 20.5 16.0556 20.5C17.9027 20.5 19.6182 19.9367 21.0398 18.9722C23.3962 17.3736 24.9444 14.6732 24.9444 11.6111Z" stroke="#4D4D4D" stroke-linecap="round" stroke-linejoin="round"/>
</g>
</svg>
