<svg width="40" height="40" viewBox="0 0 40 40" fill="none" xmlns="http://www.w3.org/2000/svg">
<g id="image 3">
<g id="SVGRepo_iconCarrier">
<path id="Vector" d="M23.7732 26.5623L20.993 23.8055C19.6515 22.475 18.9807 21.8098 18.211 21.5667C17.534 21.3528 16.8063 21.3607 16.1341 21.5892C15.3698 21.849 14.7136 22.5285 13.4011 23.8875L6.74015 30.4667M23.7732 26.5623L24.3422 25.9982C25.6853 24.6662 26.3568 24.0002 27.1275 23.757C27.8052 23.5432 28.5333 23.5517 29.206 23.781C29.9707 24.0417 30.6268 24.723 31.939 26.0855L33.3333 27.4888M23.7732 26.5623L30.4583 33.2607M6.74015 30.4667C6.79187 30.8867 6.87993 31.2187 7.02998 31.5132C7.34955 32.1403 7.85948 32.6503 8.4867 32.9698C9.19973 33.3332 10.1332 33.3332 12 33.3332H28C29.0905 33.3332 29.8627 33.3332 30.4583 33.2607M6.74015 30.4667C6.66667 29.87 6.66667 29.0957 6.66667 27.9998V11.9998C6.66667 10.133 6.66667 9.19957 7.02998 8.48654C7.34955 7.85932 7.85948 7.34939 8.4867 7.02982C9.19973 6.6665 10.1332 6.6665 12 6.6665H28C29.8668 6.6665 30.8003 6.6665 31.5133 7.02982C32.1405 7.34939 32.6505 7.85932 32.97 8.48654C33.3333 9.19957 33.3333 10.133 33.3333 11.9998V27.4888M33.3333 27.4888V27.9998C33.3333 29.8667 33.3333 30.8002 32.97 31.5132C32.6505 32.1403 32.1405 32.6503 31.5133 32.9698C31.2168 33.121 30.8822 33.2092 30.4583 33.2607M28.3333 14.9997C28.3333 16.8407 26.841 18.333 25 18.333C23.159 18.333 21.6667 16.8407 21.6667 14.9997C21.6667 13.1587 23.159 11.6663 25 11.6663C26.841 11.6663 28.3333 13.1587 28.3333 14.9997Z" stroke="#4D4D4D" stroke-width="3.33333" stroke-linecap="round" stroke-linejoin="round"/>
</g>
</g>
</svg>
