<svg width="40" height="40" viewBox="0 0 40 40" fill="none" xmlns="http://www.w3.org/2000/svg">
<g id="news 1">
<path id="Vector" d="M6.43118 5.17969C4.53534 5.17969 2.98853 6.72714 2.98853 8.62298V22.2481V23.4279V29.9457C2.98853 32.6356 5.17602 34.8205 7.86593 34.8205H29.6808H34.7999C35.0514 34.8205 35.2926 34.7756 35.5185 34.6965C36.0242 34.6597 36.4161 34.3156 36.6458 33.9311C36.7973 33.6775 36.8965 33.3877 36.9539 33.0777C36.9594 33.0525 36.9632 33.0268 36.9678 33.0012C36.9756 32.9519 36.9851 32.9035 36.9906 32.8532C36.9984 32.7823 37.0025 32.7101 37.0032 32.6375C37.0033 32.6289 37.0045 32.6215 37.0045 32.6135C37.0057 32.574 37.0115 32.5363 37.0115 32.4964V16.3143H37.0045V9.8636C37.0045 8.68351 36.0598 7.71262 34.8909 7.66402C34.4735 6.23246 33.1497 5.17977 31.5868 5.17977L6.43118 5.17969ZM6.43118 6.4759H31.5868C32.7873 6.4759 33.7339 7.42248 33.7339 8.62298V22.2481V23.4279V29.9457H33.7409V32.4963C33.7409 32.8649 33.8025 33.2104 33.9174 33.5243H18.5557V33.525H7.86593C5.87136 33.525 4.28411 31.9402 4.28411 29.9456V23.4279V22.2481V8.62298C4.28411 7.42248 5.23068 6.4759 6.43118 6.4759ZM7.37313 8.59893C6.85739 8.59893 6.44257 9.29393 6.44257 10.157V16.6792C6.44257 17.5423 6.85739 18.2373 7.37313 18.2373H15.3111C15.8268 18.2373 16.2423 17.5423 16.2423 16.6792V10.157C16.2423 9.29393 15.8268 8.59893 15.3111 8.59893H7.37313ZM20.9097 8.59893C20.3939 8.59893 19.9791 9.03043 19.9791 9.56619C19.9791 10.102 20.3939 10.5328 20.9097 10.5328H30.7784C31.2941 10.5328 31.7096 10.102 31.7096 9.56619C31.7096 9.03043 31.2941 8.59893 30.7784 8.59893H20.9097ZM35.0295 8.98292C35.427 9.08134 35.7089 9.42837 35.7089 9.86351V32.6045C35.7086 32.6131 35.7077 32.6226 35.707 32.6317C35.7064 32.6774 35.7013 32.7217 35.6944 32.7652C35.6909 32.7883 35.6859 32.8094 35.6817 32.8316C35.6278 33.0639 35.4907 33.2573 35.299 33.3801C35.2795 33.3601 35.2519 33.3261 35.2161 33.2663C35.1226 33.1097 35.0346 32.8241 35.0346 32.4964V16.3143H35.0295L35.0295 8.98292ZM20.9097 12.4509C20.3939 12.4509 19.9791 12.8824 19.9791 13.4181C19.9791 13.9539 20.3939 14.3854 20.9097 14.3854H30.7784C31.2941 14.3854 31.7096 13.9539 31.7096 13.4181C31.7096 12.8824 31.2941 12.4509 30.7784 12.4509H20.9097ZM20.9097 16.3028C20.3939 16.3028 19.9791 16.7343 19.9791 17.2701C19.9791 17.8059 20.3939 18.2373 20.9097 18.2373H30.7784C31.2941 18.2373 31.7096 17.8059 31.7096 17.2701C31.7096 16.7343 31.2941 16.3028 30.7784 16.3028H20.9097ZM7.39021 21.2853C6.86532 21.2853 6.44257 21.7161 6.44257 22.2519C6.44257 22.7876 6.86532 23.2191 7.39021 23.2191H30.7619C31.2868 23.2191 31.7096 22.7876 31.7096 22.2519C31.7096 21.7161 31.2868 21.2853 30.7619 21.2853H7.39021ZM7.40982 25.5066C6.87406 25.5066 6.44257 25.9375 6.44257 26.4733C6.44257 27.009 6.87406 27.4405 7.40982 27.4405H15.275C15.8108 27.4405 16.2417 27.009 16.2417 26.4733C16.2417 25.9375 15.8108 25.5066 15.275 25.5066H7.40982ZM20.9097 25.5066C20.3939 25.5066 19.9791 25.9375 19.9791 26.4733C19.9791 27.009 20.3939 27.4405 20.9097 27.4405H30.7784C31.2941 27.4405 31.7096 27.009 31.7096 26.4733C31.7096 25.9375 31.2941 25.5066 30.7784 25.5066H20.9097ZM7.40982 29.7274C6.87406 29.7274 6.44257 30.1589 6.44257 30.6947C6.44257 31.2304 6.87406 31.6619 7.40982 31.6619H15.275C15.8108 31.6619 16.2417 31.2304 16.2417 30.6947C16.2417 30.1589 15.8108 29.7274 15.275 29.7274H7.40982ZM20.9097 29.7274C20.3939 29.7274 19.9791 30.1589 19.9791 30.6947C19.9791 31.2304 20.3939 31.6619 20.9097 31.6619H30.7784C31.2941 31.6619 31.7096 31.2304 31.7096 30.6947C31.7096 30.1589 31.2941 29.7274 30.7784 29.7274H20.9097Z" fill="#238580"/>
</g>
</svg>
