<svg width="40" height="40" viewBox="0 0 40 40" fill="none" xmlns="http://www.w3.org/2000/svg">
<g id="stock2 1">
<g id="Group">
<path id="Vector" d="M35.4187 14.3256C35.1421 14.1842 34.8095 14.2095 34.5576 14.3913L20.2236 24.7332L10.9922 16.0717C10.6786 15.7775 10.1919 15.7725 9.87227 16.0601L2.17592 22.9872C2.0016 23.1442 1.90198 23.3678 1.90198 23.6023V33.0631C1.90198 33.5202 2.27254 33.8908 2.7296 33.8908H35.0418C35.4989 33.8908 35.8695 33.5202 35.8695 33.0631V15.0624C35.8695 14.7516 35.6953 14.4671 35.4187 14.3256ZM5.53543 32.2355H3.55722V23.9708L5.53543 22.1903V32.2355ZM9.10848 32.2355H7.19067V20.7006L9.10848 18.9745V32.2355ZM12.6814 32.2355H10.7636V18.127L12.6814 19.9263V32.2355ZM16.2545 32.2355H14.3367V21.4794L16.2545 23.2788V32.2355ZM19.8644 32.2355H17.9097V24.8319L19.5884 26.4071C19.6702 26.4838 19.7645 26.5403 19.8643 26.5778L19.8644 32.2355ZM23.4744 32.2355H21.5196V25.8393L23.4744 24.4288V32.2355ZM27.0845 32.2355H25.1296V23.2345L27.0844 21.8242V32.2355H27.0845ZM30.6944 32.2355H28.7396V20.6299L30.6944 19.2194V32.2355ZM34.2142 32.2355H32.3498V18.0253L34.2142 16.6801V32.2355Z" fill="#238580"/>
<path id="Vector_2" d="M39.868 7.01199C39.7191 6.78977 39.4641 6.65984 39.1996 6.66677L33.955 6.80829C33.5959 6.81802 33.2899 7.07178 33.2141 7.4229C33.1384 7.77412 33.3124 8.13155 33.6356 8.28839L34.8611 8.88324L20.376 19.2116L10.5057 10.2626C10.0155 9.81814 9.26892 9.81545 8.77566 10.2562L0.431699 17.7094C-0.100977 18.1852 -0.147014 19.0026 0.328764 19.5352C0.804439 20.0678 1.62182 20.1139 2.1546 19.6382L9.63059 12.9603L19.4103 21.8271C19.6553 22.0492 19.9664 22.1622 20.2791 22.1622C20.541 22.1622 20.804 22.0828 21.0296 21.922L36.2932 11.0387L36.3657 12.1843C36.3885 12.5427 36.653 12.8391 37.0064 12.9022C37.0523 12.9103 37.0984 12.9144 37.1438 12.9144C37.4477 12.9144 37.7295 12.736 37.856 12.4506L39.9331 7.7614C40.0415 7.51694 40.017 7.2341 39.868 7.01199Z" fill="#238580"/>
</g>
</g>
</svg>
