<svg width="40" height="40" viewBox="0 0 40 40" fill="none" xmlns="http://www.w3.org/2000/svg">
<g id="thinking 1">
<g id="SVGRepo_iconCarrier">
<path id="Vector" d="M24.4969 23.3194C21.7856 21.4763 18.2944 20.8757 15.0913 21.7044C14.2475 21.9325 14.8669 23.9063 15.6563 23.705C18.6056 22.9544 21.4544 23.7932 23.2456 25.0075C23.9113 25.4763 25.1663 23.7857 24.4969 23.3194Z" fill="#4D4D4D"/>
<path id="Vector_2" d="M31.0531 10.6489L30.9662 10.5196L30.8194 10.4677C28.4256 9.6202 25.4244 9.52957 22.8819 10.2408L22.7294 10.2833L22.6344 10.4096C21.954 11.303 21.5861 12.3953 21.5875 13.5183C21.5875 16.3677 23.9056 18.6858 26.755 18.6858C29.605 18.6858 31.9237 16.3677 31.9237 13.5183C31.9242 12.4967 31.6212 11.498 31.0531 10.6489ZM26.7544 17.7477C25.6329 17.7464 24.5578 17.3003 23.7648 16.5073C22.9718 15.7143 22.5257 14.6392 22.5244 13.5177C22.5244 12.7364 22.7481 11.9902 23.1556 11.3264C23.1444 11.4164 23.1237 11.5021 23.1237 11.5952C23.1237 12.2185 23.3713 12.8162 23.812 13.2569C24.2528 13.6976 24.8505 13.9452 25.4737 13.9452C26.097 13.9452 26.6947 13.6976 27.1354 13.2569C27.5762 12.8162 27.8237 12.2185 27.8237 11.5952C27.8237 11.2971 27.7612 11.0158 27.6594 10.7539C28.6012 10.8371 29.5187 11.0177 30.3562 11.2989C30.7683 11.9656 30.9861 12.734 30.985 13.5177C30.9837 14.6393 30.5375 15.7145 29.7444 16.5075C28.9512 17.3005 27.8759 17.7465 26.7544 17.7477Z" fill="#4D4D4D"/>
<path id="Vector_3" d="M18.4131 13.5183C18.4146 12.4967 18.1117 11.4978 17.5431 10.6489L17.4563 10.5196L17.3094 10.4677C14.9156 9.6202 11.9144 9.52957 9.37188 10.2408L9.21938 10.2833L9.12375 10.4096C8.44334 11.303 8.0755 12.3953 8.07688 13.5183C8.07688 16.3677 10.395 18.6858 13.2444 18.6858C16.0944 18.6852 18.4131 16.3677 18.4131 13.5183ZM13.2444 17.7477C12.1229 17.7464 11.0478 17.3003 10.2548 16.5073C9.46179 15.7143 9.0157 14.6392 9.01438 13.5177C9.01438 12.7364 9.23813 11.9902 9.64563 11.3264C9.63438 11.4164 9.61375 11.5021 9.61375 11.5952C9.61375 12.2185 9.86134 12.8162 10.3021 13.2569C10.7428 13.6976 11.3405 13.9452 11.9638 13.9452C12.587 13.9452 13.1847 13.6976 13.6255 13.2569C14.0662 12.8162 14.3138 12.2185 14.3138 11.5952C14.3138 11.2971 14.2513 11.0158 14.1494 10.7539C15.0913 10.8371 16.0088 11.0177 16.8463 11.2989C17.2584 11.9656 17.4761 12.734 17.475 13.5177C17.4756 15.8502 15.5781 17.7477 13.2444 17.7477Z" fill="#4D4D4D"/>
<path id="Vector_4" d="M20 1.25C10.3319 1.25 2.5 9.08312 2.5 18.75C2.49893 21.8751 3.33986 24.9429 4.93438 27.6306C4.68938 28.1906 4.46938 28.7856 4.44 29.535C4.43375 29.6619 4.42563 29.7987 4.41688 29.9437C4.3325 31.2294 4.20813 33.1725 5.92688 35.6081C7.03625 37.1781 8.75875 38.2094 10.9075 38.5869C11.6694 38.72 12.4494 38.7712 13.2963 38.7431C14.6819 38.6956 15.6544 38.6456 16.1869 37.6787C16.6381 36.8606 16.1188 36.3444 16.5038 35.8938C17.6544 36.1288 18.8256 36.2482 20 36.25C29.6681 36.25 37.5 28.4169 37.5 18.75C37.5 9.08312 29.6681 1.25 20 1.25ZM15.6319 36.2306C15.805 37.2925 15.2013 38.2963 11.1219 37.56C4.40875 36.3488 4.86438 29.9975 5.94875 27.7094C6.745 26.0287 6.62375 25.3138 6.16375 23.2275C5.74563 21.3344 9.32188 22.1913 9.42438 24.4613C9.5 26.145 8.85188 27.0037 9.65875 27.7444C11.4625 29.4006 16.6669 28.4931 20.185 27.7469C21.69 27.4275 22.4638 28.9537 21.3481 29.7312C20.1556 30.5644 18.7613 30.9025 16.6988 31.0538C15.6219 31.1319 16.8369 31.4787 16.6681 32.5012C16.5763 33.0625 15.9881 33.0431 16.0106 33.6269C16.0225 33.9375 16.6631 34.2644 16.2275 35.0456C16.0981 35.2788 15.5194 35.5463 15.6319 36.2306ZM20 34.6875C19.04 34.6875 18.1019 34.5956 17.1881 34.4313C17.1584 34.2501 17.0998 34.075 17.0144 33.9125C16.7788 33.4512 17.9506 32.975 17.4744 31.7362C19.26 31.4431 20.5881 31.0987 21.8188 30.3994C23.1419 29.6475 23.1862 28.8281 23.0956 28.4069C22.9419 27.705 22.2181 27.1262 21.2913 26.9637C20.9421 26.8995 20.5835 26.9073 20.2375 26.9869C18.2844 27.4606 13.61 28.0987 11.2456 27.6837C10.5813 27.5662 10.3644 27.4081 10.3031 27.3456C9.96 27.0012 10.025 26.3425 10.1931 24.98C10.3994 23.305 8.89438 21.5194 7.56 21.285L7.47438 21.2706C6.73813 21.1781 6.08125 21.39 5.6725 21.8544C5.215 22.3706 5.1125 23.1425 5.38938 23.9687C5.6075 24.6181 5.65688 25.1394 5.61438 25.6031C4.59097 23.4636 4.06065 21.1217 4.0625 18.75C4.0625 14.3575 5.84875 10.3744 8.73313 7.48875C8.7825 7.5025 8.82813 7.5025 8.86625 7.47938C9.92161 6.86614 11.0992 6.49314 12.3152 6.38695C13.5311 6.28076 14.7556 6.44398 15.9013 6.865C16.2213 6.98875 16.7313 5.81313 16.3406 5.665C14.8344 5.11586 13.2144 4.95424 11.6294 5.195C14.1424 3.63482 17.0421 2.8095 20 2.8125C24.4144 2.8125 28.415 4.61812 31.3044 7.5275C29.9866 7.04936 28.58 6.86631 27.1837 6.99125C25.7875 7.1162 24.4357 7.54611 23.2238 8.25063C22.8663 8.46438 23.5719 9.53125 23.8669 9.35562C24.9221 8.74208 26.0996 8.36876 27.3156 8.26224C28.5316 8.15573 29.7561 8.31864 30.9019 8.73937C31.17 8.84375 31.5644 8.04313 31.4581 7.68938C34.2281 10.5581 35.9375 14.4569 35.9375 18.75C35.9375 27.5381 28.7881 34.6875 20 34.6875Z" fill="#4D4D4D"/>
</g>
</g>
</svg>
